<svg width="652" height="1361" fill="none" xmlns="http://www.w3.org/2000/svg"><g opacity=".6" stroke="#D597ED" stroke-miterlimit="10"><path d="M34.392 1360.04c-38.153-23.6-39.94-81.42-17.562-120.31 22.376-38.88 61.357-64.59 96.002-93.09 34.645-28.5 67.959-65.12 70.817-109.89 3.656-57.233-43.668-109.193-37.605-166.223 4.727-44.45 41.03-78.077 79.183-96.846 21.571-10.612 46.503-14.337 68.832-23.105 101.265-39.763 191.292 24.43 254.385-27.788 68.315-56.542 64.833-119.814 52.209-150.996-16.17-39.941-70.33-128.401-176.967-104.03-43.32 9.9-87.777 18.319-132.129 15.568-66.402-4.118-130.987-56.364-135.224-122.758-2.904-45.505 20.703-92.833 4.272-135.366-11.043-28.588-39.006-48.369-68.835-55.401C61.941 162.771 30.482 167 1 175.367"/><path d="M37.371 1359.88c-38.079-25.73-41.538-84.59-19.077-125.1 21.924-39.54 61.277-65.9 96.666-93.8 34.972-27.58 68.69-62.31 73.308-105.51 5.857-55.225-37.287-106.758-30.943-163.487 5.155-45.109 38.849-79.836 75.812-100.738 21.235-12.008 46.378-17.562 69.457-26.991 97.841-39.971 185.847 21.014 247.67-29.988 66.471-54.879 64.597-116.527 52.741-147.914-15.024-39.773-67.412-124.747-170.484-103.577-42.493 8.728-86.596 15.808-130.516 12.874-64.69-4.193-127.343-54.12-133.005-118.121-3.917-44.28 17.517-90.973 1.423-133.111-10.964-28.856-37.831-49.219-66.778-57.681-29.215-8.541-60.538-6.465-90.424.325"/><path d="M40.35 1359.72c-38.006-27.86-43.126-87.75-20.59-129.9 21.485-40.19 61.185-67.2 97.329-94.51 35.289-26.66 69.422-59.48 75.798-101.13 8.059-53.207-31.035-104.327-24.281-160.739 5.479-45.78 36.674-81.651 72.443-104.63 20.906-13.431 46.249-20.777 70.08-30.876 94.459-40.033 180.403 17.597 240.956-32.186 64.627-53.216 64.355-113.233 53.271-144.832-13.888-39.598-64.539-121.14-164.001-103.124-41.691 7.551-85.417 13.295-128.905 10.179-62.975-4.267-123.721-51.891-130.785-113.482-4.94-43.07 14.332-89.114-1.426-130.856-10.884-29.126-36.67-50.091-64.721-59.959-28.615-10.068-59.788-10.125-90.078-4.914"/><path d="M43.33 1359.56c-37.934-29.99-44.705-90.89-22.106-134.69 21.063-40.83 61.087-68.52 97.995-95.22 35.595-25.76 70.154-56.67 78.289-96.75 10.259-51.199-24.705-101.898-17.621-158.002 5.863-46.443 34.496-83.519 69.074-108.522 20.582-14.882 46.12-23.98 70.705-34.762 91.117-39.962 174.957 14.179 234.242-34.385 62.782-51.554 64.106-109.932 53.803-141.751-12.764-39.412-61.714-117.584-157.52-102.67-40.911 6.368-84.226 10.659-127.291 7.484-61.25-4.517-120.125-49.677-128.566-108.842-5.975-41.874 11.048-87.216-4.275-128.601-10.874-29.369-35.518-50.989-62.664-62.239-28.03-11.616-59.038-13.785-89.732-10.151"/><path d="M46.307 1359.4c-37.86-32.12-46.27-94.03-23.62-139.49 20.655-41.45 60.978-69.83 98.659-95.93 35.891-24.86 70.886-53.85 80.779-92.37 12.462-49.184-18.366-99.46-10.959-155.257 6.253-47.107 32.309-85.438 65.705-112.413 20.256-16.36 45.99-27.171 71.33-38.649 87.816-39.775 169.511 10.764 227.527-36.583 60.939-49.892 63.851-106.624 54.333-138.669-11.647-39.219-58.936-114.09-151.037-102.218-40.159 5.176-83.042 8.111-125.678 4.79-59.532-4.639-116.557-47.479-126.345-104.204-7.022-40.695 7.837-85.35-7.124-126.347-10.814-29.632-34.373-51.912-60.608-64.517-27.452-13.19-58.287-17.446-89.385-15.39"/><path d="M49.286 1359.24c-37.788-34.25-47.824-97.16-25.135-144.28 20.258-42.07 60.862-71.16 99.323-96.64 36.178-23.97 71.692-51.01 83.269-87.99 14.76-47.146-12.02-97.03-4.299-152.519 6.648-47.771 30.107-87.405 62.337-116.306 19.922-17.865 45.861-30.35 71.954-42.535 84.552-39.485 164.066 7.347 220.814-38.782 59.093-48.23 63.588-103.31 54.864-135.587-10.545-39.016-56.209-110.664-144.554-101.766-39.435 3.971-81.859 5.566-124.067 2.094-57.814-4.756-113.023-45.294-124.126-99.564-8.088-39.53 4.631-83.482-9.973-124.092-10.751-29.895-33.227-52.863-58.55-66.797-26.88-14.788-57.537-21.105-89.038-20.627"/><path d="M52.265 1359.08C14.55 1322.7 2.897 1258.8 25.616 1210c19.873-42.68 60.735-72.49 99.988-97.35 36.457-23.09 72.433-48.18 85.76-83.61 16.974-45.118-5.667-94.591 2.363-149.772 7.048-48.435 27.885-89.411 58.968-120.197 19.578-19.391 45.735-33.515 72.577-46.421 81.322-39.1 158.622 3.93 214.098-40.981 57.25-46.567 63.316-99.99 55.395-132.506-9.455-38.808-53.531-107.317-138.072-101.313-38.737 2.753-80.674 3.024-122.453-.601-56.097-4.866-109.525-43.121-121.908-94.924-9.173-38.378 1.429-81.618-12.822-121.838-10.685-30.159-32.078-53.839-56.493-69.075-26.304-16.413-56.785-24.764-88.692-25.865"/><path d="M55.246 1358.92c-37.643-38.51-50.9-103.4-28.164-153.87 19.5-43.3 60.6-73.84 100.652-98.07 36.728-22.21 73.173-45.35 88.249-79.22 19.186-43.1.694-92.162 9.024-147.037 7.453-49.098 25.638-91.451 55.599-124.09 19.221-20.938 45.612-36.665 73.202-50.307 78.127-38.63 153.176.514 207.384-43.178 55.405-44.905 63.036-96.666 55.925-129.424-8.377-38.593-52.054-114.824-131.59-100.86-37.522 6.588-79.49.484-120.84-3.296-54.38-4.971-106.068-40.959-119.688-90.285-10.281-37.237-1.77-79.754-15.671-119.583-10.619-30.424-30.924-54.843-54.436-71.355-25.725-18.064-56.036-28.425-88.346-31.103"/><path d="M58.224 1358.76c-37.57-40.64-52.42-106.51-29.678-158.67 19.137-43.89 60.46-75.19 101.315-98.77 36.991-21.35 73.909-42.53 90.74-74.85 21.392-41.071 7.062-89.718 15.686-144.288 7.864-49.76 23.366-93.52 52.23-127.982 18.848-22.503 45.494-39.799 73.826-54.192 74.963-38.085 147.731-2.903 200.67-45.379 53.562-43.243 62.745-93.336 56.457-126.342-7.312-38.372-49.285-112.569-125.107-100.406-36.952 5.927-78.307-2.052-119.229-5.991-52.662-5.069-102.658-38.805-117.467-85.646-11.416-36.108-4.965-77.892-18.52-117.329-10.55-30.689-29.76-55.869-52.38-73.632-25.135-19.74-55.285-32.085-88-36.34"/><path d="M61.203 1358.6c-37.496-42.77-53.928-109.61-31.192-163.46 18.784-44.49 60.31-76.55 101.98-99.48 37.247-20.5 74.642-39.71 93.23-70.47 23.595-39.051 13.435-87.285 22.348-141.551 8.28-50.422 21.068-95.611 48.861-131.874 18.457-24.082 45.384-42.917 74.449-58.079 71.831-37.47 142.287-6.32 193.955-47.577 51.719-41.58 62.445-90.002 56.987-123.261-6.259-38.147-46.467-110.207-118.624-99.953-36.456 5.179-77.122-4.583-117.615-8.685-50.946-5.161-99.298-36.655-115.248-81.008-12.582-34.985-8.156-76.031-21.37-115.074-10.477-30.956-28.582-56.915-50.322-75.912-24.533-21.436-54.535-35.744-87.653-41.578"/><path d="M64.181 1358.44c-37.424-44.89-55.426-112.71-32.706-168.26 18.439-45.08 60.155-77.92 102.644-100.19 37.498-19.65 75.372-36.88 95.721-66.09 25.796-37.023 19.816-84.842 29.008-138.805 8.701-51.082 18.743-97.718 45.492-135.765 18.05-25.673 45.282-46.015 75.074-61.965 68.726-36.793 136.841-9.736 187.241-49.775 49.873-39.919 62.133-86.668 57.519-120.179-5.222-37.919-43.607-107.726-112.143-99.501-36.033 4.325-75.938-7.109-116.002-11.379-49.229-5.246-95.99-34.501-113.028-76.369-13.782-33.867-11.344-74.172-24.219-112.819-10.401-31.225-27.391-57.979-48.265-78.19-23.914-23.154-53.785-39.404-87.307-46.816"/><path d="M67.16 1358.28c-37.35-47.03-56.912-115.81-34.22-173.05 18.104-45.67 59.995-79.31 103.308-100.9 37.743-18.82 76.099-34.06 98.211-61.71 27.992-35.009 26.202-82.409 35.67-136.069 9.13-51.742 16.393-99.838 42.124-139.658 17.623-27.273 45.188-49.093 75.698-65.851 65.652-36.061 131.396-13.153 180.527-51.975 48.029-38.255 61.808-83.329 58.049-117.098-4.196-37.688-40.783-92.169-105.66-99.047-35.64-3.779-74.756-9.633-114.39-14.074-47.513-5.325-92.738-32.34-110.808-71.73-15.022-32.745-14.528-72.314-27.068-110.565-10.324-31.494-26.184-59.057-46.208-80.469-23.275-24.887-53.035-43.065-86.96-52.055"/><path d="M70.14 1358.12c-37.28-49.16-58.388-118.9-35.736-177.85 17.777-46.26 59.828-80.7 103.972-101.61 37.984-17.99 76.825-31.23 100.702-57.33 30.185-32.987 32.594-79.964 42.331-133.323 9.562-52.401 14.018-101.966 38.754-143.549 17.179-28.88 45.11-52.148 76.321-69.737 62.604-35.28 126.029-16.473 173.813-54.173 46.26-36.499 61.473-79.991 58.579-114.016-3.184-37.457-38.315-89.53-99.177-98.595-35.078-5.224-73.572-12.15-112.777-16.77-45.799-5.395-89.545-30.165-108.589-67.091-16.304-31.613-17.71-70.457-29.917-108.31-10.243-31.764-24.958-60.146-44.151-82.748-22.616-26.632-52.284-46.724-86.614-57.292"/><path d="M73.119 1357.97c-37.206-51.29-59.853-122-37.25-182.65 17.457-46.85 59.658-82.11 104.637-102.32 38.222-17.18 77.547-28.42 103.192-52.95 32.375-30.975 38.991-77.526 48.992-130.584 10.002-53.059 11.62-104.098 35.384-147.441 16.718-30.491 45.045-55.177 76.947-73.622 59.583-34.453 120.583-19.889 167.098-56.372 44.415-34.837 61.124-76.652 59.111-110.934-2.187-37.224-35.848-87.04-92.695-98.143-34.521-6.741-72.39-14.661-111.166-19.464-44.083-5.46-86.408-27.967-106.369-62.452-17.633-30.464-20.886-68.601-32.765-106.055-10.16-32.036-23.717-61.241-42.094-85.028-21.935-28.389-51.534-50.384-86.268-62.53"/><path d="M76.098 1357.81c-37.133-53.42-61.308-125.08-38.764-187.45 17.144-47.42 59.484-83.52 105.301-103.03 38.456-16.37 78.269-25.59 105.682-48.56 34.564-28.968 45.393-75.088 55.654-127.847 10.446-53.715 9.202-106.232 32.016-151.333 16.239-32.103 44.999-58.177 77.571-77.508 56.587-33.584 115.136-23.306 160.383-58.571 42.568-33.177 60.763-73.313 59.64-107.853-1.2-36.993-33.361-84.701-86.212-97.69-33.952-8.343-71.209-17.166-109.552-22.159-42.37-5.516-83.329-25.737-104.15-57.813-19.012-29.288-24.062-66.745-35.615-103.799-10.073-32.306-22.458-62.342-40.038-87.306-21.233-30.152-50.783-54.045-85.92-67.768"/><path d="M79.077 1357.65c-37.06-55.55-62.75-128.17-40.279-192.24 16.838-48.01 59.305-84.95 105.965-103.74 38.688-15.58 78.989-22.79 108.171-44.19 36.751-26.956 51.801-72.641 62.315-125.101 10.896-54.37 6.764-108.364 28.646-155.226 15.746-33.718 44.973-61.147 78.194-81.394 53.62-32.679 109.689-26.726 153.669-60.77 40.72-31.519 60.389-69.975 60.173-104.77-.228-36.765-30.837-82.515-79.73-97.237-33.359-10.044-70.028-19.665-107.94-24.854-40.658-5.566-80.3-23.467-101.929-53.174-20.439-28.072-27.231-64.893-38.463-101.546-9.983-32.58-21.183-63.443-37.98-89.585-20.511-31.919-50.034-57.704-85.575-73.005"/><path d="M82.055 1357.49c-36.987-57.68-64.186-131.25-41.794-197.04C56.8 1111.86 99.386 1074.06 146.89 1056c38.918-14.79 79.709-19.97 110.661-39.8 38.94-24.956 58.213-70.199 68.977-122.364 11.353-55.023 4.308-110.493 25.278-159.116 15.238-35.331 44.972-64.079 78.818-85.281 50.676-31.743 104.238-30.148 146.955-62.968 38.87-29.864 60.001-66.64 60.703-101.688.732-36.537-28.246-80.472-73.248-96.784-32.717-11.859-68.849-22.154-106.327-27.548-38.947-5.607-77.316-21.146-99.711-48.535-21.915-26.805-30.398-63.039-41.311-99.29-9.89-32.854-19.894-64.545-35.924-91.864-19.768-33.687-49.282-61.364-85.228-78.244"/><path d="M85.034 1357.33C48.12 1297.52 19.425 1223 41.727 1155.5c16.244-49.17 58.942-87.86 107.294-105.16 39.146-14.02 80.395-17.23 113.152-35.43 41.082-23.031 64.629-67.749 75.637-119.618 11.815-55.675 1.837-112.62 21.909-163.01 14.715-36.943 45.002-66.97 79.443-89.166 47.759-30.779 98.725-33.653 140.24-65.167 36.963-28.282 59.6-63.31 61.233-98.608 1.68-36.316-25.562-78.56-66.765-96.331-31.998-13.802-67.671-24.634-104.714-30.243-37.237-5.639-74.366-18.765-97.491-43.896-23.438-25.472-33.563-61.186-44.161-97.035-9.792-33.128-18.59-65.643-33.867-94.143-19.006-35.454-48.531-65.024-84.882-83.481"/><path d="M88.013 1357.17c-36.842-61.94-67.023-137.41-44.822-206.63 15.955-49.75 58.758-89.32 107.957-105.87 39.376-13.24 81.127-14.41 115.642-31.05 43.285-21.012 71.051-65.295 82.299-116.869 12.284-56.326-.648-114.741 18.54-166.901 14.183-38.554 45.069-69.814 80.067-93.052 44.869-29.791 93.28-37.071 133.526-67.366 35.12-26.62 59.188-59.984 61.765-95.526 2.617-36.097-22.751-76.752-60.283-95.878-31.168-15.882-66.497-27.103-103.103-32.937-35.529-5.664-71.436-16.319-95.271-39.257-25-24.062-36.725-59.335-47.01-94.781-9.693-33.403-17.274-66.739-31.811-96.421-18.229-37.219-47.782-68.685-84.536-88.72"/><path d="M90.993 1357.01c-36.77-64.07-68.428-140.48-46.336-211.42 15.673-50.33 58.574-90.81 108.622-106.58 39.604-12.49 81.859-11.6 118.132-26.67 45.486-19.006 77.575-62.829 88.96-114.134 12.869-56.949-3.147-116.855 15.171-170.793 13.639-40.161 45.176-72.603 80.691-96.938 42.007-28.783 87.836-40.488 126.811-69.565 33.277-24.957 58.762-56.663 62.295-92.444 3.545-35.886-19.78-75.021-53.8-95.425-30.186-18.105-65.323-29.559-101.489-35.633-33.824-5.68-68.516-13.799-93.051-34.619-26.591-22.562-39.819-57.501-49.859-92.526-9.527-33.697-15.946-67.829-29.755-98.701-17.433-38.98-47.03-72.344-84.188-93.957"/><path d="M93.972 1356.85c-36.696-66.2-69.722-143.52-47.85-216.22 15.465-50.88 58.389-92.29 109.285-107.29 39.834-11.73 82.59-8.77 120.622-22.28 47.687-16.998 83.957-60.393 95.622-111.395 13.297-57.606-5.655-118.965 11.802-174.686 13.085-41.766 45.338-75.33 81.315-100.824 39.176-27.76 82.391-43.904 120.098-71.763 31.432-23.295 58.324-53.348 62.826-89.363 4.461-35.68-16.615-73.318-47.317-94.973-29.012-20.463-64.154-32.002-99.877-38.327-32.12-5.688-65.584-11.204-90.831-29.98-28.198-20.969-43.005-55.642-52.708-90.271-9.447-33.965-14.61-68.914-27.698-100.979-16.626-40.736-46.281-76.004-83.842-99.196"/><path d="M96.95 1356.69c-36.624-68.33-71.21-146.63-49.365-221.01 15.12-51.49 58.205-93.81 109.95-108 40.066-10.99 83.322-5.96 123.113-17.91 49.889-14.981 90.338-57.948 102.283-108.648 13.726-58.265-8.172-121.068 8.434-178.578 12.522-43.366 45.564-77.984 81.94-104.71 36.375-26.726 76.945-47.322 113.383-73.963 29.588-21.632 57.874-50.041 63.357-86.28 5.37-35.483-13.229-71.59-40.835-94.52-27.606-22.93-62.989-34.43-98.265-41.022-30.421-5.685-62.626-8.535-88.612-25.341-29.803-19.276-46.191-53.782-55.557-88.017-9.367-34.235-13.265-69.992-25.641-103.258C325.329 62.947 295.605 25.768 257.64 1"/></g></svg>