<svg width="32" height="32" fill="none" xmlns="http://www.w3.org/2000/svg"><path d="M23.002 16.654c-.378 3.153-2.444 4.413-3.336 5.328-.893.917-.733 1.1-.673 2.445a1.221 1.221 0 0 1-1.221 1.295h-3.544a1.225 1.225 0 0 1-1.223-1.295c0-1.32.123-1.627-.672-2.445-1.013-1.014-3.397-2.444-3.397-6.379a7.076 7.076 0 1 1 14.066 1.05z" stroke="#fff" stroke-width="1.8" stroke-linecap="round" stroke-linejoin="round"/><path d="M13.947 25.648v2.016c0 .55.306 1.003.684 1.003h2.737c.38 0 .685-.454.685-1.003v-2.016M14.96 11.595a2.97 2.97 0 0 0-2.968 2.97m13.784 1.307h2.445m-4.907-8.016 1.735-1.735m-.401 16.546 1.735 1.733M16 3.17v1.977m-9.014.973L8.71 7.856M5.653 24.4l1.723-1.733m-1.152-6.795H3.78" stroke="#fff" stroke-width="1.8" stroke-linecap="round" stroke-linejoin="round"/></svg>