<svg width="32" height="26" fill="none" xmlns="http://www.w3.org/2000/svg"><g clip-path="url(#a)"><path d="m3.313 10 9.734 10.39L8.359 10H3.313zM16 22.063 21.453 10H10.547L16 22.063zM8.406 8l3.188-6H7.5L3 8h5.406zm10.547 12.39L28.688 10H23.64l-4.688 10.39zM10.672 8h10.656l-3.187-6h-4.282l-3.187 6zm12.922 0H29l-4.5-6h-4.094l3.188 6zM25.797.406l6 8a.957.957 0 0 1 .203.649.954.954 0 0 1-.266.633l-15 16A.942.942 0 0 1 16 26a.942.942 0 0 1-.734-.313l-15-16A.954.954 0 0 1 0 9.056a.957.957 0 0 1 .203-.649l6-8A.913.913 0 0 1 7 0h18c.344 0 .61.135.797.406z" fill="#fff"/></g><defs><clipPath id="a"><path fill="#fff" d="M0 0h32v26H0z"/></clipPath></defs></svg>