<svg width="32" height="33" fill="none" xmlns="http://www.w3.org/2000/svg"><path d="M9 7.348c-3.3 0-6 2.7-6 6 0 1.984.977 3.75 2.469 4.844C2.832 19.5 1 22.212 1 25.348h2c0-3.324 2.676-6 6-6s6 2.676 6 6h2c0-3.324 2.676-6 6-6s6 2.676 6 6h2c0-3.137-1.832-5.848-4.469-7.156A6.002 6.002 0 0 0 29 13.348c0-3.3-2.7-6-6-6s-6 2.7-6 6c0 1.984.977 3.75 2.469 4.844A8.059 8.059 0 0 0 16 21.472a8.059 8.059 0 0 0-3.469-3.28A6.002 6.002 0 0 0 15 13.348c0-3.3-2.7-6-6-6zm0 2c2.223 0 4 1.777 4 4s-1.777 4-4 4-4-1.777-4-4 1.777-4 4-4zm14 0c2.223 0 4 1.777 4 4s-1.777 4-4 4-4-1.777-4-4 1.777-4 4-4z" fill="#fff"/></svg>