<svg width="189" height="34" fill="none" xmlns="http://www.w3.org/2000/svg"><g clip-path="url(#a)" fill="#fff"><path d="M17.182 34c9.49 0 17.182-7.61 17.182-17V5.1a5.07 5.07 0 0 0-1.51-3.606A5.183 5.183 0 0 0 29.209 0H18.041v7.458c0 1.702.105 3.464 1.007 4.913a8.54 8.54 0 0 0 2.533 2.605 8.644 8.644 0 0 0 3.398 1.328l.329.053a.686.686 0 0 1 .465.643.675.675 0 0 1-.465.643l-.33.053a8.624 8.624 0 0 0-4.689 2.379 8.469 8.469 0 0 0-2.404 4.64l-.053.325a.692.692 0 0 1-1.3 0l-.054-.325a8.449 8.449 0 0 0-1.342-3.363 8.551 8.551 0 0 0-2.633-2.506c-1.464-.892-3.246-.996-4.965-.996H.02C.47 26.844 7.98 34 17.18 34z"/><path d="M0 16.15h7.538c1.72 0 3.501-.104 4.965-.996a8.562 8.562 0 0 0 2.813-2.783c.902-1.449 1.007-3.211 1.007-4.913V0H5.155A5.183 5.183 0 0 0 1.51 1.494 5.073 5.073 0 0 0 0 5.1v11.05zM39.91 1.7c0 .45-.182.883-.504 1.202a1.727 1.727 0 0 1-2.43 0 1.691 1.691 0 0 1 0-2.404 1.728 1.728 0 0 1 2.43 0c.322.319.503.751.503 1.202zm141.969 8.588c4.803 0 7.121 3.32 7.121 7.164v7.221h-5.027v-6.364c0-1.742-.642-3.18-2.485-3.18s-2.457 1.438-2.457 3.18v6.363h-5.026V18.31c0-1.742-.615-3.18-2.458-3.18-1.843 0-2.486 1.438-2.486 3.18v6.363h-5.025v-7.22c0-3.845 2.317-7.165 7.12-7.165 2.625 0 4.524 1.024 5.39 2.711.921-1.687 2.932-2.711 5.333-2.711v.001zm-26.876 9.959c1.62 0 2.318-1.466 2.318-3.21v-6.196h5.026v6.805c0 4.066-2.401 7.442-7.344 7.442-4.943 0-7.344-3.375-7.344-7.442v-6.805h5.026v6.196c0 1.743.698 3.21 2.318 3.21zm-14.735 4.868c-3.155 0-5.194-1.079-6.395-3.18l3.631-2.02c.502.884 1.256 1.327 2.512 1.327 1.034 0 1.508-.36 1.508-.802 0-1.687-7.372.028-7.372-5.338 0-2.601 2.234-4.703 6.032-4.703 3.323 0 5.138 1.604 5.948 3.153l-3.63 2.047c-.307-.83-1.257-1.328-2.206-1.328-.726 0-1.117.305-1.117.72 0 1.715 7.372.138 7.372 5.338 0 2.905-2.877 4.786-6.283 4.786zm-17.561 5.92h-5.027V17.73c0-4.233 3.211-7.303 7.679-7.303 4.357 0 7.68 3.292 7.68 7.303 0 4.426-2.961 7.359-7.4 7.359-1.034 0-2.067-.305-2.932-.775v6.722zm2.652-10.622c1.592 0 2.653-1.217 2.653-2.657 0-1.465-1.061-2.655-2.653-2.655-1.591 0-2.652 1.19-2.652 2.656 0 1.439 1.061 2.656 2.652 2.656zM112.645 9.376c-1.648 0-3.016-1.356-3.016-2.988s1.368-2.988 3.016-2.988 3.016 1.356 3.016 2.988-1.368 2.988-3.016 2.988zm-2.513 1.465h5.027v13.832h-5.027V10.841zm-9.644 14.247c-4.357 0-7.68-3.32-7.68-7.359 0-4.01 3.323-7.33 7.68-7.33 4.356 0 7.679 3.32 7.679 7.33 0 4.04-3.323 7.359-7.679 7.359zm0-4.675c1.592 0 2.653-1.217 2.653-2.657 0-1.465-1.061-2.682-2.653-2.682s-2.653 1.217-2.653 2.682c0 1.44 1.061 2.657 2.653 2.657zM83.318 31.45c-3.463 0-5.977-1.521-7.261-4.233l4.16-2.213c.447.941 1.285 1.91 3.016 1.91 1.816 0 3.016-1.135 3.156-3.127-.67.582-1.732 1.024-3.323 1.024-3.882 0-7.01-2.96-7.01-7.11 0-4.01 3.324-7.275 7.68-7.275 4.469 0 7.68 3.071 7.68 7.303v5.478c0 4.979-3.492 8.243-8.099 8.243zm.334-11.313c1.508 0 2.653-1.025 2.653-2.546 0-1.494-1.144-2.49-2.653-2.49-1.48 0-2.653.996-2.653 2.49 0 1.522 1.173 2.545 2.653 2.545zm-16.121 4.95c-4.357 0-7.68-3.319-7.68-7.358 0-4.01 3.323-7.33 7.68-7.33 4.355 0 7.679 3.32 7.679 7.33 0 4.04-3.323 7.359-7.68 7.359zm0-4.674c1.591 0 2.652-1.217 2.652-2.657 0-1.465-1.06-2.682-2.652-2.682s-2.653 1.217-2.653 2.682c0 1.44 1.06 2.657 2.653 2.657zM50.697 6v13.97h8.322v4.703H50c-3.183 0-4.467-1.66-4.467-4.288V6h5.166z"/></g><defs><clipPath id="a"><path fill="#fff" d="M0 0h189v34H0z"/></clipPath></defs></svg>